<svg width="149" height="149" xmlns="http://www.w3.org/2000/svg" xmlns:xlink="http://www.w3.org/1999/xlink" xml:space="preserve" overflow="hidden"><defs><clipPath id="clip0"><rect x="-151" y="288" width="149" height="149"/></clipPath></defs><g clip-path="url(#clip0)" transform="translate(151 -288)"><path d="M-10.3813 412.167-71.0677 306.625C-73.3958 302.434-79.449 302.434-81.7771 306.625L-142.619 412.167C-144.947 416.357-141.998 421.479-137.186 421.479L-76.5 421.479-15.8135 421.479C-11.0021 421.479-8.05313 416.357-10.3813 412.167ZM-81.1562 331.458-71.8438 331.458-71.8438 385.781-81.1562 385.781-81.1562 331.458ZM-76.5 407.51C-80.8458 407.51-84.2604 404.096-84.2604 399.75-84.2604 395.404-80.8458 391.99-76.5 391.99-72.1542 391.99-68.7396 395.404-68.7396 399.75-68.7396 404.096-72.1542 407.51-76.5 407.51Z" fill="#FFFFFF"/></g></svg>