<svg width="157" height="157" xmlns="http://www.w3.org/2000/svg" xmlns:xlink="http://www.w3.org/1999/xlink" overflow="hidden"><defs><clipPath id="clip0"><rect x="521" y="474" width="157" height="157"/></clipPath></defs><g clip-path="url(#clip0)" transform="translate(-521 -474)"><path d="M599.958 604.833C607.129 599.172 613.971 593.106 620.45 586.664 629.842 577.716 638.147 567.693 645.194 556.801 651.735 546.269 657.982 532.597 653.681 520.102 650.198 509.767 640.533 500.984 629.428 499.921 615.396 498.531 605.24 510.404 599.5 521.771 594.25 511.369 585.566 500.641 573.023 499.856 561.885 499.169 551.517 507.003 546.725 516.733 540.723 528.95 545.613 542.688 551.926 553.661 558.467 565.109 567.168 575.167 576.359 584.472 583.604 591.885 591.335 598.807 599.5 605.193ZM573.333 549.229 578.24 534.51 581.151 525.761C581.903 523.488 583.064 520.446 586.204 521.754 588.101 522.556 588.216 524.518 588.543 526.235L589.9 533.48 593.825 554.413 596.425 568.314 605.911 543.227 608.004 537.699C608.609 536.064 609.231 534.429 611.275 534.249 613.875 533.987 614.644 536.211 615.216 538.174L617.228 545.075 621.218 558.796 625.16 554.463C626.42 552.813 627.839 551.29 629.395 549.916 631.031 548.771 634.056 549.295 635.937 549.295L642.021 549.295C640.811 551.47 639.47 553.661 638.014 555.836L632.699 555.836C629.216 559.679 625.879 563.768 622.183 567.415 621.024 568.8 618.961 568.984 617.576 567.824 617.303 567.596 617.07 567.326 616.884 567.023 616.529 566.319 616.271 565.571 616.116 564.798L613.385 555.46 611.161 547.806C606.99 558.813 602.983 569.835 598.682 580.793 598.442 581.685 597.92 582.477 597.194 583.05 595.705 584.072 593.669 583.694 592.646 582.206 592.385 581.825 592.207 581.394 592.124 580.94 591.748 579.435 591.552 577.865 591.258 576.361L587.12 554.283 584.029 537.781 579.417 551.633C578.714 553.694 578.158 555.705 575.508 555.836 573.104 555.951 570.684 555.836 568.296 555.836L560.937 555.836C559.498 553.661 558.14 551.47 556.93 549.295Z" fill="#FFFFFF"/></g></svg>